<?xml version="1.0" encoding="utf-8"?>
<!-- Generator: Adobe Illustrator 28.3.0, SVG Export Plug-In . SVG Version: 6.00 Build 0)  -->
<svg version="1.1" id="Capa_1" xmlns="http://www.w3.org/2000/svg" xmlns:xlink="http://www.w3.org/1999/xlink" x="0px" y="0px"
	 viewBox="0 0 794.16 277.41" style="enable-background:new 0 0 794.16 277.41;" xml:space="preserve">
<style type="text/css">
	.st0{fill:#FFFFFF;}
</style>
<g>
	<path class="st0" d="M0.11,136.83c0.61-11.28-0.57-25.19,1.04-39.14C8.65,32.8,72.02-12,135.76,2.86
		c51.72,12.05,87.04,56.02,87.04,109.06c0,22.43,1.23,44.88-1.05,67.3c-4.3,42.23-35.5,80.41-76.22,92.61
		c-43.65,13.08-82.07,3.03-114.09-28.59c-20.21-19.95-30.34-45.35-31.27-73.99C-0.16,159.33,0.11,149.39,0.11,136.83z M111.25,10.19
		C69.16,10.16,29.34,38.95,15.8,78.18c-4.97,14.41-1.7,25.75,8.3,36.23c12.32,12.91,27.49,21.55,43.57,28.54
		c20.56,8.93,42.15,15.5,61.41,27.35c2.64,1.62,4.8,1.25,6.76-1.28c12.74-16.44,29.35-27.79,48-36.52
		c7.66-3.58,13.86-9.26,18.3-16.32c5.74-9.13,9.86-19.03,6.96-30.2C197.51,41.42,157.16,10.23,111.25,10.19z M10.21,145.71
		c-0.01,0-0.02,0-0.04,0c0,6.15-0.17,12.3,0.03,18.45c0.78,23.49,6.97,44.95,21.83,63.87c35.33,44.98,100.28,52.13,143.96,15.46
		c3.69-3.1,4.88-6.19,2.27-10.38c-3.13-5.01-5.91-10.29-9.49-14.95c-20.23-26.34-47.53-42.91-77.85-54.84
		c-27.55-10.85-55.38-20.98-76.06-43.71c-0.72-0.79-2.08-1.64-2.98-1.49c-1.69,0.29-1.65,2.08-1.66,3.47
		C10.19,129.63,10.21,137.67,10.21,145.71z M211.83,122.78c-7.37,8.19-15.09,15.26-24.99,19.77c-15.24,6.94-28.29,16.87-39.75,29.11
		c-4.32,4.62-5.13,7.16,0.68,11.47c14.68,10.91,27.38,23.88,36.72,39.84c4.34,7.43,4.89,7.44,10.14,0.34
		c0.84-1.14,1.52-2.39,2.29-3.57C216.5,189.78,212.86,156.2,211.83,122.78z"/>
	<path class="st0" d="M164.63,83.41c-0.48,4.46-5.02,3.92-8.48,4.63c-17,3.49-29.09,13.08-35.93,29c-1.66,3.86-2.48,8.14-3.3,12.3
		c-0.6,3.01-1.19,5.54-4.95,5.72c-4.03,0.19-5.31-2.32-5.95-5.63c-1.44-7.43-3.1-14.61-7.81-21.03
		c-8.26-11.26-18.78-18.42-32.54-20.83c-3.47-0.61-7.37-0.75-7.17-5.93c0.19-4.83,3.88-4.48,7.1-5.05
		c20.96-3.69,35.64-18.01,39.96-38.89c0.19-0.93,0.42-1.85,0.59-2.78c0.6-3.2,1.58-6.03,5.6-6.13c4.31-0.1,4.71,2.96,5.21,6.16
		c2.27,14.5,9.12,26.21,21.46,34.44c6.22,4.15,13.28,6.1,20.54,7.35C162.38,77.33,164.85,78.49,164.63,83.41z M112,108.1
		c0.52-0.48,1.39-0.98,1.82-1.73c5.42-9.43,12.8-16.84,22.26-22.25c2.82-1.61,1.92-3.43-0.49-4.69
		c-9.27-4.84-16.19-12.06-21.41-21.01c-1.87-3.22-3.6-3.35-5.39,0.16c-4.54,8.88-11.73,15.29-19.95,20.59
		c-3.09,1.99-4.57,3.32-0.36,5.74c8.35,4.79,14.98,11.39,19.8,19.78C109.07,106.06,109.74,107.72,112,108.1z"/>
</g>
<g>
	<g>
		<path class="st0" d="M327.98,119.67v34.13h-11.02V72.01h23.12c5.17,0,9.65,0.52,13.41,1.57c3.77,1.05,6.88,2.56,9.33,4.54
			c2.45,1.98,4.27,4.37,5.45,7.16c1.18,2.8,1.77,5.93,1.77,9.39c0,2.89-0.46,5.59-1.37,8.1c-0.91,2.51-2.24,4.77-3.97,6.76
			c-1.73,2-3.84,3.7-6.33,5.11c-2.49,1.41-5.32,2.47-8.48,3.2c1.37,0.8,2.59,1.96,3.65,3.48l23.86,32.48h-9.82
			c-2.02,0-3.5-0.78-4.45-2.34l-21.23-29.22c-0.65-0.91-1.35-1.57-2.11-1.97c-0.76-0.4-1.9-0.6-3.42-0.6H327.98z M327.98,111.62
			h11.59c3.23,0,6.08-0.39,8.53-1.17c2.45-0.78,4.51-1.88,6.16-3.31s2.9-3.13,3.74-5.11c0.84-1.98,1.26-4.17,1.26-6.56
			c0-4.87-1.61-8.54-4.82-11.02c-3.22-2.47-8-3.71-14.35-3.71h-12.1V111.62z"/>
		<path class="st0" d="M531.16,112.93c0,6.13-0.97,11.75-2.91,16.87c-1.94,5.12-4.68,9.52-8.22,13.21
			c-3.54,3.69-7.79,6.55-12.76,8.59c-4.97,2.04-10.45,3.05-16.47,3.05c-6.01,0-11.49-1.02-16.44-3.05
			c-4.95-2.03-9.19-4.9-12.73-8.59c-3.54-3.69-6.28-8.09-8.22-13.21c-1.94-5.12-2.91-10.74-2.91-16.87c0-6.13,0.97-11.75,2.91-16.86
			c1.94-5.12,4.68-9.53,8.22-13.24s7.78-6.59,12.73-8.65c4.95-2.05,10.43-3.08,16.44-3.08c6.01,0,11.5,1.03,16.47,3.08
			c4.97,2.05,9.22,4.94,12.76,8.65s6.28,8.12,8.22,13.24C530.19,101.18,531.16,106.81,531.16,112.93z M519.81,112.93
			c0-5.02-0.68-9.53-2.05-13.53c-1.37-3.99-3.31-7.37-5.82-10.13c-2.51-2.76-5.56-4.88-9.13-6.36c-3.58-1.48-7.57-2.23-11.99-2.23
			c-4.38,0-8.35,0.74-11.93,2.23c-3.58,1.48-6.63,3.61-9.16,6.36c-2.53,2.76-4.48,6.14-5.85,10.13c-1.37,4-2.05,8.5-2.05,13.53
			c0,5.02,0.68,9.52,2.05,13.5c1.37,3.98,3.32,7.34,5.85,10.1c2.53,2.76,5.58,4.87,9.16,6.34c3.58,1.47,7.55,2.2,11.93,2.2
			c4.41,0,8.41-0.73,11.99-2.2c3.58-1.46,6.62-3.58,9.13-6.34c2.51-2.76,4.45-6.13,5.82-10.1
			C519.12,122.45,519.81,117.95,519.81,112.93z"/>
		<path class="st0" d="M656.67,84.79c-0.34,0.57-0.7,1-1.09,1.28c-0.38,0.29-0.87,0.43-1.48,0.43c-0.65,0-1.4-0.32-2.26-0.97
			c-0.86-0.65-1.94-1.36-3.25-2.14s-2.89-1.49-4.74-2.14c-1.85-0.65-4.08-0.97-6.71-0.97c-2.47,0-4.66,0.33-6.56,1
			c-1.9,0.67-3.49,1.57-4.77,2.71c-1.28,1.14-2.24,2.48-2.88,4.02c-0.65,1.54-0.97,3.21-0.97,4.99c0,2.28,0.56,4.18,1.68,5.68
			c1.12,1.5,2.61,2.79,4.45,3.85c1.84,1.07,3.94,1.99,6.28,2.77c2.34,0.78,4.74,1.59,7.19,2.43c2.45,0.84,4.85,1.78,7.19,2.83
			s4.43,2.37,6.28,3.97c1.84,1.6,3.33,3.56,4.45,5.88c1.12,2.32,1.68,5.18,1.68,8.56c0,3.58-0.61,6.93-1.83,10.07
			c-1.22,3.14-3,5.87-5.34,8.19c-2.34,2.32-5.21,4.15-8.62,5.48c-3.41,1.33-7.28,2-11.62,2c-5.29,0-10.11-0.96-14.47-2.88
			c-4.36-1.92-8.08-4.52-11.16-7.79l3.2-5.25c0.3-0.42,0.68-0.77,1.11-1.06c0.44-0.29,0.92-0.43,1.46-0.43
			c0.8,0,1.71,0.43,2.74,1.28c1.03,0.86,2.31,1.8,3.85,2.83c1.54,1.03,3.4,1.97,5.59,2.82c2.19,0.86,4.86,1.28,8.02,1.28
			c2.63,0,4.97-0.36,7.02-1.08c2.05-0.72,3.8-1.74,5.22-3.05c1.43-1.31,2.52-2.88,3.28-4.71c0.76-1.83,1.14-3.86,1.14-6.11
			c0-2.47-0.56-4.5-1.68-6.08c-1.12-1.58-2.6-2.9-4.42-3.97c-1.83-1.06-3.91-1.97-6.25-2.71c-2.34-0.74-4.74-1.5-7.19-2.28
			c-2.45-0.78-4.85-1.68-7.19-2.71c-2.34-1.03-4.42-2.36-6.25-4c-1.83-1.64-3.3-3.68-4.42-6.14c-1.12-2.45-1.68-5.49-1.68-9.1
			c0-2.89,0.56-5.69,1.68-8.39c1.12-2.7,2.75-5.1,4.88-7.19c2.13-2.09,4.77-3.77,7.9-5.02c3.14-1.26,6.74-1.88,10.82-1.88
			c4.57,0,8.73,0.72,12.5,2.17c3.77,1.45,7.06,3.54,9.87,6.28L656.67,84.79z"/>
		<path class="st0" d="M794.16,72.01v9.02H754.9v27.17h31.79v8.68H754.9v27.91h39.27v9.02h-50.4V72.01H794.16z"/>
	</g>
	<g>
		<g>
			<path class="st0" d="M506.35,168.33c1.78,0,3.29,0.06,4.53,0.17c1.24,0.12,1.86,0.37,1.86,0.75c0,0.23-0.45,0.39-1.33,0.46
				c-0.89,0.08-2.07,0.15-3.54,0.23c-3.71,0-7.76,0.39-12.13,1.16c-4.37,0.77-7.3,2.48-8.76,5.11c-2.32,4.88-5.38,8.86-9.17,11.96
				c-3.79,3.09-6.58,4.64-8.36,4.64h-0.35c-0.7,0-1.32-0.23-1.86-0.7c-0.54-0.62-0.81-1.32-0.81-2.09c0-2.09,1.45-4.66,4.35-7.72
				c2.9-3.06,6.48-5.79,10.74-8.18c0.08,0,0.12-0.04,0.12-0.12c0.7-0.31,1.24-0.66,1.63-1.04c0.39-0.39,0.79-1.08,1.22-2.09
				c0.42-1.01,0.99-2.63,1.68-4.88c1-3.02,1.66-6.15,1.97-9.4v-1.39c0-1.7-0.39-2.55-1.16-2.55h-0.12c-2.09,0-5.92,4.29-11.49,12.88
				c-5.57,8.59-11.11,19.46-16.6,32.62c-5.49,13.16-9.48,27.01-11.96,41.56c-0.31,1.86-0.54,3.48-0.7,4.88
				c-0.15,2.48-0.42,3.71-0.81,3.71c-0.54,0-1.05-0.31-1.51-0.93c-0.23-0.46-0.35-0.97-0.35-1.51v-0.46
				c0-4.18,1.47-12.21,4.41-24.09c2.94-11.88,6.42-24.44,10.45-37.67c4.03-13.23,7.89-24.73,11.61-34.48
				c3.71-9.75,6.31-14.63,7.78-14.63c0.31,0,0.46,0.16,0.46,0.46v0.23c0,0.46-0.72,2.83-2.15,7.08c-1.43,4.26-3.08,9.25-4.93,14.98
				c-2.32,6.81-4.45,13.12-6.38,18.92c-1.93,5.8-2.9,9.09-2.9,9.87c0.08,0,0.62-1.05,1.63-3.13c1.39-3.17,3.42-7.33,6.09-12.48
				c2.67-5.15,5.53-9.85,8.59-14.1c3.06-4.26,5.86-6.38,8.42-6.38c1.55,0,2.84,0.58,3.89,1.74c1.05,1.16,1.57,3.1,1.57,5.8
				c0,2.09-0.27,4.18-0.81,6.27c-0.54,2.09-1.01,3.75-1.39,4.99c-0.31,0.93-0.46,1.47-0.46,1.63c5.26-1.39,10.52-2.09,15.79-2.09
				H506.35z M469.55,189.81c1.39,0,3.08-0.93,5.05-2.79c1.97-1.86,3.71-3.85,5.22-5.98c1.51-2.13,2.26-3.58,2.26-4.35
				c0-0.08-0.02-0.14-0.06-0.17c-0.04-0.04-0.06-0.1-0.06-0.17h-0.12c-0.54,0-1.88,0.75-4.01,2.26c-2.13,1.51-4.16,3.25-6.09,5.22
				c-1.94,1.97-2.9,3.73-2.9,5.28v0.12c0,0.08,0,0.13,0,0.17c0,0.04,0.04,0.1,0.12,0.17c0.08,0.08,0.17,0.13,0.29,0.17
				C469.38,189.79,469.47,189.81,469.55,189.81z"/>
			<path class="st0" d="M568.22,168.79c0.08,0,0.15,0,0.23,0c0.08,0,0.15,0.04,0.23,0.12c0.08,0.08,0.12,0.19,0.12,0.35
				c0,0.15-1.41,0.99-4.24,2.5c-2.83,1.51-6.25,2.98-10.27,4.41c-4.02,1.43-7.89,2.15-11.61,2.15c-4.02,0-6.93-1.03-8.71-3.08
				c-1.78-2.05-2.67-5.09-2.67-9.11c0-0.85-0.35-1.28-1.05-1.28h-0.12c-0.85,0-1.96,0.56-3.31,1.68c-1.35,1.12-2.42,2.53-3.19,4.24
				c-1.01,2.09-1.74,3.13-2.21,3.13c-0.08,0-0.14-0.04-0.17-0.12c-0.04-0.08-0.06-0.23-0.06-0.46c0-0.31,0.04-0.58,0.12-0.81v-0.46
				c0-0.08,0-0.14,0-0.17c0-0.04-0.04-0.06-0.12-0.06c-0.16,0-0.48,0.19-0.99,0.58c-0.5,0.39-1.1,0.89-1.8,1.51
				c-1.47,1.24-3.06,2.48-4.76,3.71c-1.7,1.24-3.06,1.86-4.06,1.86c-0.77,0-1.43-0.31-1.97-0.93c-0.46-0.54-0.7-1.12-0.7-1.74v-0.35
				c0-1.63,0.79-3.77,2.38-6.44c1.59-2.67,3.48-5.07,5.69-7.2c2.21-2.13,4.28-3.19,6.21-3.19c1.31,0,2.21,0.43,2.67,1.28
				c0.46,0.85,0.77,1.66,0.93,2.44c0.08,0.31,0.15,0.56,0.23,0.75c0.08,0.19,0.15,0.29,0.23,0.29c0.23,0,0.7-0.27,1.39-0.81
				c0.7-0.46,1.43-0.93,2.21-1.39c0.77-0.46,1.55-0.7,2.32-0.7c1.24,0,2.07,0.52,2.5,1.57c0.42,1.05,0.79,2.3,1.1,3.77
				c0.23,1.39,0.62,2.8,1.16,4.24c0.54,1.43,1.41,2.63,2.61,3.6c1.2,0.97,3.04,1.45,5.51,1.45c3.17,0,6.42-0.6,9.75-1.8
				c3.33-1.2,6.27-2.38,8.82-3.54C565.43,169.45,567.29,168.79,568.22,168.79z M517.84,170.3c1.47-1.16,2.51-2.05,3.13-2.67
				c0.54-0.54,0.81-1.08,0.81-1.63v-0.23c0-0.46-0.04-0.89-0.12-1.28c-0.08-0.15-0.16-0.27-0.23-0.35
				c-0.08-0.08-0.19-0.12-0.35-0.12c-0.7,0-1.55,0.46-2.55,1.39c-1.01,0.93-1.99,2.01-2.96,3.25c-0.97,1.24-1.78,2.38-2.44,3.42
				c-0.66,1.05-0.99,1.68-0.99,1.92c0,0.08,0.04,0.12,0.12,0.12C512.73,174.13,514.59,172.86,517.84,170.3z"/>
			<path class="st0" d="M566.71,183.54c0,0.08,0.04,0.12,0.12,0.12c0.15,0,0.81-0.75,1.97-2.26c1.16-1.51,2.59-3.46,4.29-5.86
				c2.4-3.41,5.01-7,7.84-10.8c2.82-3.79,5.46-7.06,7.89-9.81c2.44-2.75,4.24-4.12,5.4-4.12c0.7,0,1.12,0.7,1.28,2.09
				c0,0.31-0.04,0.7-0.12,1.16c-0.08,0.7-0.12,1.9-0.12,3.6c0,4.41,0.97,7.86,2.9,10.33c1.93,2.48,4.37,3.71,7.31,3.71
				c2.01,0,4.02-0.25,6.04-0.75c2.01-0.5,3.75-0.99,5.22-1.45c1.39-0.46,2.32-0.7,2.79-0.7c0.7,0,1.08,0.19,1.16,0.58
				c0,0.31-0.95,0.79-2.84,1.45c-1.9,0.66-4.16,1.28-6.79,1.86c-2.63,0.58-4.99,0.87-7.08,0.87c-3.17,0-5.71-0.72-7.6-2.15
				c-1.9-1.43-3.25-3.23-4.06-5.4c-0.81-2.17-1.22-4.29-1.22-6.38c0-1.78,0.23-3.4,0.7-4.88c-0.31,0-1.45,1.32-3.42,3.95
				c-1.97,2.63-4.28,5.84-6.91,9.63c-3.79,5.34-7.47,10.39-11.03,15.15c-3.56,4.76-5.8,7.14-6.73,7.14c-0.15,0-0.35-0.04-0.58-0.12
				c-0.23-0.08-0.42-0.19-0.58-0.35c-0.46-0.46-0.7-1.32-0.7-2.55c0-2.09,0.64-5.26,1.92-9.52c1.28-4.26,2.71-8.17,4.29-11.72
				c1.59-3.56,2.84-5.34,3.77-5.34h0.23c0.39,0.08,0.7,0.25,0.93,0.52c0.23,0.27,0.35,0.56,0.35,0.87v0.23
				c0,0.85-0.45,2.59-1.33,5.22c-0.89,2.63-1.84,5.34-2.84,8.13c-0.7,1.93-1.28,3.6-1.74,4.99
				C566.94,182.38,566.71,183.23,566.71,183.54z"/>
			<path class="st0" d="M667.46,168.68c0.15,0,0.23,0.04,0.23,0.12c0,0.15-0.89,1.08-2.67,2.79c-1.78,1.7-4.18,3.62-7.2,5.75
				c-3.02,2.13-6.44,4.01-10.27,5.63c-3.83,1.63-7.84,2.44-12.01,2.44c-3.1,0-5.63-0.45-7.6-1.33c-1.97-0.89-3.5-1.9-4.59-3.02
				c-1.08-1.12-1.9-2.07-2.44-2.84c-0.54-0.77-0.93-1.16-1.16-1.16c-0.31,0-0.77,1.14-1.39,3.42c-0.62,2.28-1.29,4.95-2.03,8.01
				c-0.73,3.06-1.37,5.96-1.91,8.71c-0.54,2.75-0.81,4.62-0.81,5.63c0,0.7,0.04,1.28,0.12,1.74v0.46c0,0.31-0.12,0.62-0.35,0.93
				c-0.23,0.23-0.54,0.35-0.93,0.35c-0.62,0-1.05-0.23-1.28-0.7c-0.23-0.46-0.39-0.97-0.46-1.51c-0.08-0.54-0.12-0.89-0.12-1.05
				v-0.12c0-2.94,1.26-9.5,3.77-19.68c2.52-10.18,5.46-21.13,8.82-32.85c3.37-11.72,6.54-21.94,9.52-30.65
				c2.98-8.71,5.01-13.06,6.09-13.06c0.39,0,0.58,0.39,0.58,1.16c0,0.7-0.75,3.52-2.26,8.47c-1.51,4.95-3.27,10.64-5.28,17.06
				c-2.32,7.35-4.43,14.12-6.33,20.31c-1.9,6.19-2.84,9.83-2.84,10.91h0.12v-0.12c0.08-0.08,0.19-0.15,0.35-0.23
				c0.23-0.15,0.54-0.39,0.93-0.7c1-0.77,2.13-1.55,3.37-2.32c4.57-2.79,9.03-5.3,13.41-7.55c4.37-2.24,7.18-3.37,8.42-3.37
				c0.15,0,0.29,0.02,0.41,0.06c0.12,0.04,0.17,0.17,0.17,0.41c0,0.54-0.93,1.47-2.79,2.79c-1.86,1.32-4.14,2.83-6.85,4.53
				c-4.1,2.55-8.01,5.21-11.72,7.95c-3.71,2.75-5.57,5.01-5.57,6.79c0,0.62,0.44,1.72,1.33,3.31c0.89,1.59,2.38,3.06,4.47,4.41
				c2.09,1.35,4.91,2.03,8.47,2.03c3.79,0,7.35-0.68,10.68-2.03c3.33-1.35,6.31-2.88,8.94-4.59c2.63-1.7,4.84-3.29,6.62-4.76
				C665.49,169.53,666.84,168.68,667.46,168.68z"/>
		</g>
	</g>
</g>
</svg>
